<?xml version="1.0" standalone="no"?>
<!DOCTYPE svg PUBLIC "-//W3C//DTD SVG 20010904//EN"
 "http://www.w3.org/TR/2001/REC-SVG-20010904/DTD/svg10.dtd">
<svg version="1.0" xmlns="http://www.w3.org/2000/svg"
 width="192.000000pt" height="192.000000pt" viewBox="0 0 192.000000 192.000000"
 preserveAspectRatio="xMidYMid meet">
<metadata>
Created by potrace 1.11, written by Peter Selinger 2001-2013
</metadata>
<g transform="translate(0.000000,192.000000) scale(0.100000,-0.100000)"
fill="#000000" stroke="none">
<path d="M0 960 l0 -960 960 0 960 0 0 960 0 960 -960 0 -960 0 0 -960z m1008
697 c35 -37 61 -108 84 -230 l22 -114 66 45 c134 92 256 135 295 102 37 -31
-1 -140 -100 -282 -53 -74 -54 -78 -33 -82 13 -3 59 -12 103 -21 89 -19 178
-55 212 -87 68 -64 -20 -127 -226 -162 -52 -9 -96 -17 -98 -19 -1 -2 17 -30
41 -63 96 -129 140 -252 101 -284 -38 -31 -151 8 -290 101 -40 27 -76 49 -79
49 -3 0 -6 -10 -6 -22 0 -44 -50 -229 -75 -279 -37 -72 -86 -84 -124 -30 -24
33 -56 134 -71 221 -21 123 -10 116 -95 60 -261 -176 -377 -138 -252 81 23 41
59 96 80 123 21 27 34 53 30 57 -5 4 -38 12 -75 18 -86 15 -198 52 -237 80
-98 70 -2 145 234 181 38 6 71 12 73 14 1 2 -26 47 -62 100 -97 145 -119 234
-62 256 47 18 137 -17 265 -104 46 -31 85 -56 87 -56 1 0 5 19 9 43 4 23 16
78 27 122 44 178 99 242 156 182z"/>
<path d="M926 1628 c-13 -18 -33 -63 -45 -100 -27 -90 -53 -230 -44 -238 5 -3
34 -28 66 -54 l57 -48 70 57 c80 65 78 54 39 222 -41 181 -88 233 -143 161z"/>
<path d="M458 1454 c-30 -30 23 -162 114 -282 l40 -54 88 4 c49 1 91 6 95 9 3
4 10 40 14 80 7 62 5 76 -8 86 -41 33 -151 103 -199 127 -54 27 -131 44 -144
30z"/>
<path d="M1353 1439 c-28 -11 -94 -48 -145 -82 l-93 -62 3 -70 c5 -103 5 -103
70 -110 31 -3 69 -8 83 -11 23 -4 33 4 77 63 60 82 118 186 127 231 13 63 -28
77 -122 41z"/>
<path d="M1040 1233 c-30 -25 -56 -49 -58 -53 -7 -17 60 -60 94 -60 33 0 34 1
33 43 0 23 -3 58 -7 78 l-7 36 -55 -44z"/>
<path d="M826 1239 c-3 -18 -6 -49 -6 -70 0 -38 1 -39 38 -39 24 0 47 8 66 23
l28 23 -48 40 c-69 57 -71 58 -78 23z"/>
<path d="M940 1145 c-11 -13 -7 -15 26 -15 36 1 38 2 20 15 -25 19 -31 19 -46
0z"/>
<path d="M662 1101 l-32 -6 54 -60 54 -60 31 29 c24 23 31 38 31 68 l0 38 -52
-1 c-29 -1 -68 -4 -86 -8z"/>
<path d="M817 1103 c-10 -9 -9 -43 1 -43 5 0 19 11 32 25 l23 25 -25 0 c-13 0
-28 -3 -31 -7z"/>
<path d="M852 1067 c-41 -42 -42 -45 -42 -109 l0 -66 49 -41 c45 -38 53 -41
107 -41 55 0 61 2 101 42 42 41 43 44 43 107 0 63 -1 67 -42 108 -41 42 -44
43 -108 43 -64 0 -67 -1 -108 -43z m180 -34 c33 -36 40 -69 24 -108 -18 -43
-52 -65 -99 -65 -87 0 -130 109 -68 171 41 41 106 41 143 2z"/>
<path d="M922 1040 c-12 -5 -29 -25 -39 -44 -14 -30 -14 -39 -3 -67 36 -87
170 -60 170 35 0 55 -74 99 -128 76z"/>
<path d="M1060 1102 c0 -5 11 -19 25 -32 l25 -23 0 31 c0 27 -4 32 -25 32 -14
0 -25 -4 -25 -8z"/>
<path d="M505 1084 c-211 -38 -298 -101 -213 -154 43 -27 172 -67 257 -81 l69
-12 38 43 c75 82 75 79 9 154 -32 36 -63 66 -69 65 -6 0 -47 -7 -91 -15z"/>
<path d="M1130 1062 c0 -37 31 -83 56 -81 5 0 29 24 53 52 l45 52 -30 6 c-16
4 -50 7 -76 8 l-48 1 0 -38z"/>
<path d="M1285 1066 c-6 -8 -27 -35 -49 -60 l-38 -46 57 -65 c66 -75 68 -76
210 -46 116 24 195 62 195 95 0 45 -74 85 -217 116 -105 23 -145 25 -158 6z"/>
<path d="M767 983 c-14 -16 -14 -20 3 -40 25 -32 30 -29 30 17 0 44 -8 49 -33
23z"/>
<path d="M1130 960 l0 -44 22 22 22 22 -22 22 -22 22 0 -44z"/>
<path d="M687 891 l-49 -56 49 -7 c26 -3 63 -7 81 -7 30 -1 32 1 32 32 0 24
-9 41 -32 64 l-33 31 -48 -57z"/>
<path d="M1157 922 c-16 -16 -29 -44 -33 -71 l-7 -43 84 7 c46 4 86 9 88 11 3
2 -98 124 -104 124 -1 0 -13 -12 -28 -28z"/>
<path d="M810 848 c0 -20 6 -27 26 -32 37 -10 38 -4 4 29 l-30 29 0 -26z"/>
<path d="M1075 840 l-29 -30 32 0 c29 0 32 3 32 30 0 17 -1 30 -3 30 -2 0 -16
-13 -32 -30z"/>
<path d="M581 763 c-79 -107 -124 -191 -129 -243 -4 -45 -3 -49 20 -55 13 -3
46 1 73 10 52 18 189 97 238 137 27 23 27 24 21 105 l-7 83 -31 4 c-17 3 -56
8 -86 11 l-56 6 -43 -58z"/>
<path d="M1200 801 l-75 -6 -7 -50 c-15 -113 -17 -108 75 -168 153 -102 239
-134 270 -102 10 9 17 24 17 33 0 55 -156 304 -188 300 -9 -1 -51 -4 -92 -7z"/>
<path d="M814 763 c3 -21 6 -55 6 -75 0 -21 3 -38 8 -38 4 0 33 21 65 47 l59
48 -31 27 c-24 21 -42 28 -72 28 l-42 0 7 -37z"/>
<path d="M930 792 c0 -5 7 -15 16 -22 12 -11 18 -10 32 3 15 16 15 17 0 17 -9
0 -23 3 -32 6 -9 3 -16 2 -16 -4z"/>
<path d="M1055 791 c-17 -3 -41 -14 -55 -24 l-25 -18 55 -49 c30 -27 58 -46
62 -42 11 12 14 135 3 137 -5 1 -24 -1 -40 -4z"/>
<path d="M891 677 l-63 -52 6 -61 c12 -116 64 -279 96 -299 27 -16 59 6 84 58
26 53 59 175 71 258 l7 47 -63 51 c-35 28 -66 51 -69 50 -3 0 -34 -24 -69 -52z"/>
</g>
</svg>
